<svg id="visual" viewBox="0 0 450 900" width="450" height="900" xmlns="http://www.w3.org/2000/svg" xmlns:xlink="http://www.w3.org/1999/xlink" version="1.1"><rect x="0" y="0" width="450" height="900" fill="#212222"></rect><defs><linearGradient id="grad1_0" x1="0%" y1="0%" x2="100%" y2="100%"><stop offset="30%" stop-color="#212222" stop-opacity="1"></stop><stop offset="70%" stop-color="#212222" stop-opacity="1"></stop></linearGradient></defs><defs><linearGradient id="grad2_0" x1="0%" y1="0%" x2="100%" y2="100%"><stop offset="30%" stop-color="#212222" stop-opacity="1"></stop><stop offset="70%" stop-color="#212222" stop-opacity="1"></stop></linearGradient></defs><g transform="translate(450, 0)"><path d="M0 337.5C-41.9 328 -83.7 318.4 -125.9 304C-168.1 289.5 -210.5 270.1 -238.6 238.6C-266.8 207.2 -280.6 163.8 -294.7 122.1C-308.8 80.3 -323.2 40.2 -337.5 0L0 0Z" fill="#003459"></path></g><g transform="translate(0, 900)"><path d="M0 -337.5C43.8 -332.8 87.7 -328.2 129.2 -311.8C170.6 -295.5 209.7 -267.4 231.9 -231.9C254.2 -196.5 259.6 -153.6 274.4 -113.7C289.2 -73.8 313.3 -36.9 337.5 0L0 0Z" fill="#003459"></path></g></svg>