<svg id="visual" viewBox="0 0 540 960" width="540" height="960" xmlns="http://www.w3.org/2000/svg" xmlns:xlink="http://www.w3.org/1999/xlink" version="1.1"><rect x="0" y="0" width="540" height="960" fill="#212222"></rect><defs><linearGradient id="grad1_0" x1="0%" y1="0%" x2="100%" y2="100%"><stop offset="30%" stop-color="#111111" stop-opacity="1"></stop><stop offset="70%" stop-color="#111111" stop-opacity="1"></stop></linearGradient></defs><defs><linearGradient id="grad2_0" x1="0%" y1="0%" x2="100%" y2="100%"><stop offset="30%" stop-color="#111111" stop-opacity="1"></stop><stop offset="70%" stop-color="#111111" stop-opacity="1"></stop></linearGradient></defs><g transform="translate(540, 0)"><path d="M0 378C-42.1 349.8 -84.2 321.6 -124.8 301.2C-165.3 280.7 -204.3 268 -244.7 244.7C-285 221.3 -326.8 187.2 -349.2 144.7C-371.7 102.1 -374.8 51 -378 0L0 0Z" fill="#0066FF"></path></g><g transform="translate(0, 960)"><path d="M0 -378C42.9 -354.9 85.7 -331.8 130.5 -315C175.3 -298.3 222 -287.8 260.9 -260.9C299.9 -234.1 331 -190.9 349.2 -144.7C367.4 -98.4 372.7 -49.2 378 0L0 0Z" fill="#0066FF"></path></g></svg>