<svg id="visual" viewBox="0 0 450 900" width="450" height="900" xmlns="http://www.w3.org/2000/svg" xmlns:xlink="http://www.w3.org/1999/xlink" version="1.1"><path d="M0 180L10.7 176.7C21.3 173.3 42.7 166.7 64.2 161.5C85.7 156.3 107.3 152.7 128.8 152.3C150.3 152 171.7 155 193 159.7C214.3 164.3 235.7 170.7 257 176.8C278.3 183 299.7 189 321.2 184.5C342.7 180 364.3 165 385.8 159C407.3 153 428.7 156 439.3 157.5L450 159L450 0L439.3 0C428.7 0 407.3 0 385.8 0C364.3 0 342.7 0 321.2 0C299.7 0 278.3 0 257 0C235.7 0 214.3 0 193 0C171.7 0 150.3 0 128.8 0C107.3 0 85.7 0 64.2 0C42.7 0 21.3 0 10.7 0L0 0Z" fill="#175a8d"></path><path d="M0 154L10.7 148.3C21.3 142.7 42.7 131.3 64.2 133C85.7 134.7 107.3 149.3 128.8 159C150.3 168.7 171.7 173.3 193 168.5C214.3 163.7 235.7 149.3 257 140.7C278.3 132 299.7 129 321.2 129C342.7 129 364.3 132 385.8 129.5C407.3 127 428.7 119 439.3 115L450 111L450 0L439.3 0C428.7 0 407.3 0 385.8 0C364.3 0 342.7 0 321.2 0C299.7 0 278.3 0 257 0C235.7 0 214.3 0 193 0C171.7 0 150.3 0 128.8 0C107.3 0 85.7 0 64.2 0C42.7 0 21.3 0 10.7 0L0 0Z" fill="#0b4772"></path><path d="M0 87L10.7 90.8C21.3 94.7 42.7 102.3 64.2 108.2C85.7 114 107.3 118 128.8 113.2C150.3 108.3 171.7 94.7 193 94.5C214.3 94.3 235.7 107.7 257 110.7C278.3 113.7 299.7 106.3 321.2 100.8C342.7 95.3 364.3 91.7 385.8 98.3C407.3 105 428.7 122 439.3 130.5L450 139L450 0L439.3 0C428.7 0 407.3 0 385.8 0C364.3 0 342.7 0 321.2 0C299.7 0 278.3 0 257 0C235.7 0 214.3 0 193 0C171.7 0 150.3 0 128.8 0C107.3 0 85.7 0 64.2 0C42.7 0 21.3 0 10.7 0L0 0Z" fill="#003459"></path><path d="M0 86L10.7 83C21.3 80 42.7 74 64.2 69.5C85.7 65 107.3 62 128.8 63.3C150.3 64.7 171.7 70.3 193 77C214.3 83.7 235.7 91.3 257 94.2C278.3 97 299.7 95 321.2 89.7C342.7 84.3 364.3 75.7 385.8 71.5C407.3 67.3 428.7 67.7 439.3 67.8L450 68L450 0L439.3 0C428.7 0 407.3 0 385.8 0C364.3 0 342.7 0 321.2 0C299.7 0 278.3 0 257 0C235.7 0 214.3 0 193 0C171.7 0 150.3 0 128.8 0C107.3 0 85.7 0 64.2 0C42.7 0 21.3 0 10.7 0L0 0Z" fill="#002e4d"></path><path d="M0 30L10.7 29.5C21.3 29 42.7 28 64.2 27.2C85.7 26.3 107.3 25.7 128.8 25.5C150.3 25.3 171.7 25.7 193 28C214.3 30.3 235.7 34.7 257 34.7C278.3 34.7 299.7 30.3 321.2 34.5C342.7 38.7 364.3 51.3 385.8 56C407.3 60.7 428.7 57.3 439.3 55.7L450 54L450 0L439.3 0C428.7 0 407.3 0 385.8 0C364.3 0 342.7 0 321.2 0C299.7 0 278.3 0 257 0C235.7 0 214.3 0 193 0C171.7 0 150.3 0 128.8 0C107.3 0 85.7 0 64.2 0C42.7 0 21.3 0 10.7 0L0 0Z" fill="#022841"></path></svg>