<svg id="visual" viewBox="0 0 540 960" width="540" height="960" xmlns="http://www.w3.org/2000/svg" xmlns:xlink="http://www.w3.org/1999/xlink" version="1.1"><path d="M0 275L18 280C36 285 72 295 108 286.3C144 277.7 180 250.3 216 226.3C252 202.3 288 181.7 324 183C360 184.3 396 207.7 432 217.5C468 227.3 504 223.7 522 221.8L540 220L540 0L522 0C504 0 468 0 432 0C396 0 360 0 324 0C288 0 252 0 216 0C180 0 144 0 108 0C72 0 36 0 18 0L0 0Z" fill="#0066FF" stroke-linecap="round" stroke-linejoin="miter"></path></svg>